<?xml version="1.0" encoding="UTF-8" standalone="no"?>
<!-- Copyright 2017 mathsisfun.com -->
<svg xmlns="http://www.w3.org/2000/svg" width="240.7" height="178.6" version="1.1">
<defs>
<marker id="id1" style="overflow:visible;" orient="auto">
<path transform="matrix(-0.4,0,0,-0.4,-4,0)" style="stroke:black; stroke-width:1pt;" d="M 0,0 5,-5 -12.5,0 5,5 0,0 Z"/>
</marker>
<marker id="id2" style="overflow:visible;" orient="auto">
<path transform="matrix(0.4,0,0,0.4,4,0)" style="fill:#009100; stroke:#009100; stroke-width:1pt;" d="M 0,0 5,-5 -12.5,0 5,5 0,0 Z"/>
</marker>
</defs>
<text x="26.3" y="157.7" style="font-family:'Comic Sans MS'; text-align:end; text-anchor:end; font-size:12.1px; color:black; fill:black;"> -1</text>
<text x="26.3" y="130.8" style="font-family:'Comic Sans MS'; text-align:end; text-anchor:end; font-size:12.1px; color:black; fill:black;">-0.5</text>
<text x="26.3" y="103.9" style="font-family:'Comic Sans MS'; text-align:end; text-anchor:end; font-size:12.1px; color:black; fill:black;">0</text>
<text x="26.3" y="77" style="font-family:'Comic Sans MS'; text-align:end; text-anchor:end; font-size:12.1px; color:black; fill:black;">0.5</text>
<text x="26.3" y="49.8" style="font-family:'Comic Sans MS'; text-align:end; text-anchor:end; font-size:12.1px; color:black; fill:black;">1 </text>
<path style="color:#808080; fill:none; stroke:#808080; stroke-width:0.34;" d="m 78.8,164 v -146"/>
<path style="color:#808080; fill:none; stroke:#808080; stroke-width:0.34;" d="m 116.4,164 v -146"/>
<path style="color:#808080; fill:none; stroke:#808080; stroke-width:0.34;" d="M 152.7,164.4 V 18.3"/>
<path style="color:#808080; fill:none; stroke:#808080; stroke-width:0.34;" d="M 189.7,164.4 V 17.5"/>
<text x="43" y="176.6" style="font-family:'Comic Sans MS'; text-align:center; text-anchor:middle; font-size:13.3px; color:black; fill:black;">0</text>
<path style="color:#808080; fill:none; stroke:#808080; stroke-width:0.34;" d="M 226.8,164.4 V 18.3"/>
<text x="79.5" y="177.9" style="font-family:'Comic Sans MS'; text-align:center; text-anchor:middle; font-size:12.1px; color:black; fill:black;"/> &#160; &#160;
<text x="116.6" y="176.6" style="font-family:'Comic Sans MS'; text-align:center; text-anchor:middle; font-size:13.3px; color:black; fill:black;">π</text>
<text x="153.5" y="176.6" style="font-family:'Comic Sans MS'; text-align:center; text-anchor:middle; font-size:13.3px; color:black; fill:black;">3π/2</text>
<path style="color:#008000; overflow:visible; fill:none; stroke:#19aeff; stroke-width:1.48; stroke-dasharray:8.9, 1.5;" d="m 30.7,126.4 c 12.2,-23.7 19.7,-50 35.3,-72 5.4,-10.2 20.2,-11.7 26.2,-1.3 15.2,20.1 22.3,44.7 33.4,67.1 6,11.8 11.3,25.9 23.6,32.5 12.7,3 19.5,-11 25,-20 14.2,-25.7 21.9,-54.6 38.8,-78.8 6.1,-10.6 20.9,-10.8 26.9,0"/>
<text x="190" y="176.6" style="font-family:'Comic Sans MS'; text-align:center; text-anchor:middle; font-size:13.3px; color:black; fill:black;">2π</text>
<g transform="matrix(0.33626,0,0,0.227499,-52.968,6.6194)">
<path style="stroke-width:1.22;" d="M 286,692 V 50"/>
</g>
<text x="227.4" y="176.6" style="font-family:'Comic Sans MS'; text-align:center; text-anchor:middle; font-size:13.3px; color:black; fill:black;">5π/2</text>
<text x="215.2" y="109.7" style="font-family:'Comic Sans MS'; font-weight:bold; font-size:13.3px; font-style:italic; overflow:visible; fill:black; stroke-width:1px;">x</text>
<text x="46.7" y="29.5" style="font-family:'Comic Sans MS'; font-weight:bold; font-size:13.3px; font-style:italic; overflow:visible; fill:black; stroke-width:1px;">y</text>
<path style="color:#808080; fill:none; stroke:#808080; stroke-width:0.3;" d="m 30.7,153.3 h 207.9"/>
<path style="color:#808080; fill:none; stroke:#808080; stroke-width:0.3;" d="m 30.7,126.4 h 207.9"/>
<g transform="matrix(0.219778,0,0,0.33626,-8.26404,-25.2606)">
<path style="stroke-width:1.09;" d="m 177,371 h 946"/>
</g>
<path style="color:#808080; fill:none; stroke:#808080; stroke-width:0.3;" d="m 30.7,72.6 h 207.9"/>
<path style="color:#808080; fill:none; stroke:#808080; stroke-width:0.3;" d="m 30.7,45.4 h 207.9"/>
<path style="color:#808080; fill:none; stroke:#808080; stroke-width:0.3;" d="m 30.7,17.8 h 207.9"/>
<path style="marker-end:url(#id1); fill:#2e3436; fill-opacity:0.75; stroke:#2e3436; stroke-width:1.01;" d="M 43,164.8 V 18.6"/>
<text x="26.3" y="22.2" style="font-family:'Comic Sans MS'; text-align:end; text-anchor:end; font-size:12.1px; color:black; fill:black;"> 1.5</text>
<path style="color:#008000; overflow:visible; fill:none; stroke:#009100; stroke-width:1.48;" d="m 30.6,103.7 c 12.2,-23.7 19.7,-50 35.3,-72 5.4,-10.2 20.2,-11.7 26.2,-1.3 15.2,20.1 22.3,44.7 33.4,67.1 6,11.8 11.3,25.9 23.6,32.5 12.7,3 19.5,-11 25,-20 14.2,-25.7 21.9,-54.6 38.8,-78.8 6.1,-10.6 20.9,-10.8 26.9,0"/>
<text x="84.6" y="13.5" style="font-family:'Comic Sans MS'; color:black; overflow:visible; fill:#009100; stroke-width:1px;">Vertical Shift</text>
<path style="marker-start:url(#id2); fill:#009100; fill-opacity:0.75; stroke:#009100; stroke-width:1.59;" d="m 122.4,25.5 v 19"/>
<path style="fill:none; stroke:black; stroke-width:0.58px;" d="m 89.2,22.4 h 53.1"/>
<path style="fill:none; stroke:black; stroke-width:0.58px;" d="m 89.2,45.9 h 53.1"/>
<path style="marker-end:url(#id1); fill:#2e3436; fill-opacity:0.75; stroke:#2e3436; stroke-width:1.03;" d="m 30.7,99.5 h 203.6"/>
<text x="80.2" y="176.6" style="font-family:'Comic Sans MS'; text-align:center; text-anchor:middle; font-size:13.3px; color:black; fill:black;">π/2</text>
</svg>
